<?xml version="1.0" encoding="UTF-8" standalone="no"?>
<svg
   class="img-fluid"
   id="outputsvg"
   width="720"
   height="720"
   viewBox="0 0 7200 7200"
   version="1.1"
   sodipodi:docname="logo_provençana_color.svg"
   inkscape:version="1.2.1 (9c6d41e410, 2022-07-14, custom)"
   xmlns:inkscape="http://www.inkscape.org/namespaces/inkscape"
   xmlns:sodipodi="http://sodipodi.sourceforge.net/DTD/sodipodi-0.dtd"
   xmlns="http://www.w3.org/2000/svg"
   xmlns:svg="http://www.w3.org/2000/svg">
  <defs
     id="defs41" />
  <sodipodi:namedview
     id="namedview39"
     pagecolor="#505050"
     bordercolor="#eeeeee"
     borderopacity="1"
     inkscape:showpageshadow="0"
     inkscape:pageopacity="0"
     inkscape:pagecheckerboard="0"
     inkscape:deskcolor="#505050"
     showgrid="false"
     inkscape:zoom="0.8206784"
     inkscape:cx="311.93705"
     inkscape:cy="364.33273"
     inkscape:window-width="1920"
     inkscape:window-height="1011"
     inkscape:window-x="0"
     inkscape:window-y="0"
     inkscape:window-maximized="1"
     inkscape:current-layer="outputsvg" />
  <rect
     style="fill:#ffffff;stroke-width:10.4451"
     id="rect305"
     width="7200"
     height="7200"
     x="0"
     y="2.220446e-16"
     ry="0" />
  <g
     id="g331"
     transform="translate(276.55502,18.005662)">
    <g
       id="l2tbcrdtxYcErRXFy1rdENz"
       fill="#000000"
       transform="translate(-2013.5439)">
      <g
         id="g21">
        <path
           id="p1CAyGF88b"
           d="m 3190,7126 c 0,-3 -29,-147 -65,-322 -36,-174 -64,-319 -61,-321 2,-2 144,-30 315,-62 172,-32 314,-60 316,-62 2,-2 -23,-148 -56,-323 -32,-176 -57,-321 -56,-323 2,-1 75,-16 162,-33 236,-44 376,-94 505,-180 218,-145 364,-360 416,-613 23,-115 24,-129 14,-247 -24,-275 -130,-495 -317,-663 -129,-116 -272,-185 -452,-222 -204,-41 -274,-34 -865,81 -264,51 -481,92 -483,90 -6,-5 -543,-2829 -539,-2833 5,-6 5449,-1063 5453,-1059 5,5 1053,5389 1050,5393 -2,2 -147,30 -323,63 -457,86 -4484,876 -4488,881 -3,2 24,145 60,318 35,173 63,316 60,318 -3,3 -630,123 -642,123 -2,0 -4,-2 -4,-4 z M 7506,4909 c 57,-15 138,-90 150,-139 10,-44 7,-63 -18,-123 -26,-60 -62,-80 -184,-101 -49,-9 -90,-20 -92,-26 -2,-5 -10,-10 -18,-10 -11,0 -14,-16 -14,-67 0,-38 4,-73 8,-78 19,-27 61,-36 145,-33 54,2 87,-1 87,-7 0,-5 3,-19 6,-31 5,-19 -1,-22 -79,-34 -68,-10 -91,-10 -123,0 -55,18 -90,47 -120,98 -22,37 -26,54 -22,97 8,93 62,136 217,175 81,20 94,26 103,49 13,35 4,108 -17,131 -23,25 -90,34 -169,23 l -65,-9 -7,29 c -3,15 -4,30 -2,31 7,6 124,34 146,35 13,1 43,-4 68,-10 z M 3099,2414 c 8,-7 -81,-504 -91,-504 -4,0 -8,-11 -8,-24 0,-13 -3,-38 -6,-55 -6,-30 -9,-31 -43,-26 -87,14 -81,8 -66,72 23,101 94,456 101,506 l 7,49 51,-7 c 28,-4 53,-9 55,-11 z m 3516,-705 c -12,-19 -45,-311 -45,-399 0,-81 3,-101 20,-122 29,-37 102,-62 163,-55 93,12 99,25 142,352 14,105 25,191 25,193 0,2 8,1 18,-2 9,-2 42,-7 73,-11 l 55,-6 -17,-122 c -47,-337 -51,-361 -78,-410 -14,-26 -39,-56 -56,-65 -16,-9 -32,-20 -35,-23 -11,-13 -68,-17 -123,-8 -58,10 -139,58 -160,95 -4,8 -23,14 -41,14 -31,0 -34,-3 -40,-35 -6,-30 -10,-34 -29,-31 -12,3 -39,8 -59,11 -21,3 -38,11 -38,18 0,17 73,534 85,603 l 5,30 70,-9 c 38,-6 67,-13 65,-18 z m -3688,-98 c 9,-12 8,-22 -5,-43 -19,-32 -33,-35 -67,-12 -31,20 -31,31 -3,61 24,25 54,23 75,-6 z" />
        <path
           id="p1D7RNZh40"
           d="m 4020,6967 c 0,-1 -18,-101 -40,-222 -22,-121 -40,-220 -40,-221 0,-2 87,-24 94,-24 3,0 9,15 14,33 l 9,32 15,-30 c 9,-17 33,-40 55,-52 38,-21 103,-39 103,-29 0,3 -5,27 -11,54 -10,48 -12,50 -54,61 -48,12 -85,52 -85,93 0,12 11,81 25,153 14,71 25,130 25,131 0,2 -96,24 -105,24 -3,0 -5,-1 -5,-3 z" />
        <path
           id="ps8Ejgrdo"
           d="m 4525,6851 c -77,-13 -123,-49 -162,-125 -32,-63 -34,-73 -28,-127 9,-79 64,-153 142,-192 51,-26 62,-28 122,-22 92,9 161,56 202,137 27,53 29,65 23,118 -9,79 -62,153 -137,192 -53,27 -87,31 -162,19 z m 135,-116 c 54,-40 73,-78 67,-133 -15,-134 -221,-164 -277,-40 -24,53 -24,61 -3,116 13,35 25,48 57,62 60,27 115,25 156,-5 z" />
        <path
           id="pVbWNjhla"
           d="m 4997,6542 c -180,-223 -176,-212 -91,-225 l 41,-7 84,105 c 46,57 86,104 89,105 3,0 21,-57 40,-126 19,-69 37,-130 41,-135 5,-9 109,-32 115,-26 4,3 -143,507 -149,513 -2,2 -78,-90 -170,-204 z" />
        <path
           id="p9D7eodvp"
           d="m 5580,6629 c -65,-19 -72,-24 -138,-108 -23,-29 -26,-43 -26,-106 0,-63 3,-77 26,-106 70,-90 82,-99 153,-119 69,-20 70,-20 139,0 80,22 124,59 163,133 13,27 22,51 20,53 -2,2 -87,21 -188,41 -101,20 -188,39 -192,43 -28,24 66,90 127,90 33,0 106,-27 106,-39 0,-3 9,-16 18,-29 l 18,-24 47,23 46,22 -50,58 c -46,53 -54,58 -120,73 -84,19 -68,19 -149,-5 z m 190,-307 c 12,-10 -57,-51 -97,-57 -55,-8 -113,22 -137,71 -9,19 -16,36 -16,38 0,4 243,-46 250,-52 z" />
        <path
           id="pCOdaSTLF"
           d="m 6040,6577 c 0,-2 -18,-104 -40,-227 -22,-123 -39,-225 -37,-226 1,-1 23,-5 49,-9 45,-7 47,-6 54,19 8,33 15,33 42,-4 27,-36 63,-55 119,-65 58,-9 116,21 144,76 18,37 94,348 86,356 -6,5 -110,23 -114,19 -2,-2 -15,-70 -29,-151 -13,-81 -32,-157 -40,-170 -23,-36 -78,-42 -120,-13 -54,37 -60,85 -29,243 14,71 25,130 25,131 0,2 -96,24 -105,24 -3,0 -5,-1 -5,-3 z" />
        <path
           id="p0HJqyu7F"
           d="m 6746,6540 c -3,-16 -8,-43 -12,-59 -4,-22 -12,-30 -36,-35 -89,-18 -107,-27 -148,-76 -81,-97 -83,-203 -6,-309 31,-42 46,-53 98,-70 38,-13 87,-21 129,-21 67,0 67,0 73,30 3,17 9,44 12,62 6,27 4,30 -12,23 -11,-4 -46,-9 -79,-12 -106,-8 -169,45 -169,142 0,61 16,85 77,117 l 38,19 -6,-35 c -7,-33 -6,-35 31,-45 41,-11 54,-4 54,32 0,25 21,21 67,-13 l 41,-30 6,30 c 19,96 22,86 -34,117 -54,30 -52,22 -34,112 4,25 2,29 -23,35 -15,4 -35,9 -45,12 -12,3 -18,-3 -22,-26 z" />
        <path
           id="pUvm3NI2O"
           d="m 7146,6348 c -78,-14 -138,-65 -171,-141 -25,-59 -26,-68 -16,-122 23,-124 111,-205 223,-205 39,0 64,7 93,25 52,32 55,31 44,-7 -5,-17 -7,-33 -6,-35 6,-5 110,-23 114,-20 2,3 83,432 83,443 0,2 -97,24 -105,24 -2,0 -7,-16 -11,-35 -8,-43 -18,-44 -41,-4 -11,19 -40,42 -75,60 -62,31 -60,31 -132,17 z m 137,-109 c 25,-12 51,-33 60,-48 79,-134 -52,-273 -191,-202 -100,51 -103,202 -5,243 78,34 81,34 136,7 z" />
        <path
           id="pG5fttiyw"
           d="m 7630,6266 c 0,-2 -20,-101 -45,-220 -25,-119 -45,-219 -45,-221 0,-3 92,-25 104,-25 2,0 7,12 11,27 l 7,28 20,-28 c 24,-33 78,-62 135,-72 58,-9 116,21 144,76 15,30 79,317 79,354 0,5 -103,26 -106,22 -2,-2 -17,-70 -34,-150 -16,-81 -37,-158 -45,-171 -24,-36 -66,-42 -114,-15 -35,19 -40,27 -46,68 -3,30 3,90 20,176 14,71 25,130 25,131 0,2 -96,24 -105,24 -3,0 -5,-2 -5,-4 z" />
        <path
           id="phXnSIG9P"
           d="m 8291,6129 c -26,-5 -64,-25 -96,-49 -100,-77 -122,-214 -52,-324 25,-39 43,-55 94,-78 72,-34 113,-33 189,8 l 45,24 -6,-34 -7,-34 53,-11 c 28,-6 54,-10 56,-8 2,3 83,432 83,443 0,2 -96,24 -104,24 -2,0 -6,-19 -10,-42 l -7,-42 -27,38 c -16,23 -49,49 -84,67 -62,31 -61,31 -127,18 z m 137,-115 c 76,-31 103,-109 66,-187 -62,-131 -274,-84 -274,61 0,113 97,173 208,126 z" />
        <path
           id="pWEyZzWuB"
           d="m 3450,5078 c 0,-3 -27,-148 -60,-323 -33,-176 -58,-320 -57,-322 11,-10 334,-63 390,-63 224,0 388,261 288,458 -38,73 -101,134 -173,166 -32,13 -122,37 -200,51 -79,15 -153,29 -165,32 -13,3 -23,3 -23,1 z" />
      </g>
    </g>
    <g
       id="l7gKLv3PpWXrXFcWEKn1mp0"
       fill="#f80404"
       transform="translate(-2013.5439)">
      <g
         id="g26">
        <path
           id="pDMw0CPQX"
           d="m 2900,1795 c 0,-8 7,-15 15,-15 25,0 29,-1 43,-12 9,-8 12,-4 12,16 0,23 -4,26 -35,26 -24,0 -35,-5 -35,-15 z" />
        <path
           id="pjxjIX24Z"
           d="m 6444,1743 c -4,-21 -8,-47 -10,-58 -1,-11 -5,-40 -8,-65 -4,-25 -9,-58 -11,-75 -3,-25 -36,-261 -51,-360 -17,-122 -17,-122 17,-129 18,-3 63,-9 101,-13 57,-5 69,-3 68,8 -1,8 -2,25 -1,39 l 1,25 18,-21 c 48,-58 112,-91 192,-100 19,-2 42,-5 50,-6 26,-3 100,14 100,23 0,5 5,9 12,9 15,0 81,51 74,58 -3,3 3,19 13,36 10,17 22,54 26,81 5,28 9,57 11,65 1,8 5,33 8,55 40,297 48,366 44,370 -7,7 -198,29 -203,23 -3,-3 -16,-90 -30,-194 -40,-302 -51,-335 -116,-348 -38,-7 -113,25 -135,58 -14,22 -15,42 -10,124 3,53 8,112 11,130 18,115 28,197 29,237 1,38 0,39 -34,41 -43,2 -97,10 -132,19 -23,6 -26,3 -34,-32 z" />
      </g>
    </g>
    <g
       id="l4CODMwKXyUS9sA8HQXfkc2"
       fill="#0181fd"
       transform="translate(-2013.5439)">
      <g
         id="g30">
        <path
           id="p17gXUABq1"
           d="m 7321,4931 c -36,-9 -66,-22 -69,-29 -3,-11 15,-108 25,-124 2,-4 20,0 39,8 49,21 156,23 179,4 25,-21 36,-56 25,-84 -7,-20 -24,-27 -101,-46 -144,-36 -196,-73 -219,-158 -14,-55 -4,-125 26,-177 56,-96 154,-124 324,-91 74,14 78,20 57,93 -13,41 -18,48 -38,45 -116,-13 -142,-14 -167,-1 -36,19 -42,28 -42,72 0,25 4,37 14,37 8,0 16,5 18,10 2,6 43,17 92,26 122,21 158,41 184,101 49,115 38,190 -40,264 -73,71 -170,86 -307,50 z" />
      </g>
    </g>
    <g
       id="l5vuFjAmf1g0bgMgVkH1h8n"
       fill="#fefe03"
       transform="translate(-2013.5439)">
      <g
         id="g35">
        <path
           id="p15HYKECjl"
           d="m 2965,2458 c -2,-7 -11,-51 -19,-98 -26,-148 -55,-291 -85,-425 -34,-148 -32,-155 44,-155 23,0 46,-5 52,-11 6,-6 21,-9 34,-7 20,2 25,11 32,48 4,25 14,65 22,90 8,25 23,100 35,168 11,67 29,177 41,243 11,67 17,125 12,129 -8,6 -127,30 -152,30 -6,0 -14,-6 -16,-12 z" />
        <path
           id="p140pAQTnH"
           d="m 2832,1655 c -54,-46 -53,-100 3,-135 50,-31 96,-20 124,30 25,45 26,59 3,85 -44,50 -87,57 -130,20 z" />
      </g>
    </g>
  </g>
</svg>
